#!OML:ASF X:\für Bonn\!DataBase\2005_08_11_Bastian_Final\c3d\Bastian.ASF
:FULLY-SPECIFIED
:DEGREES
138
root 20.1464 15.7384 -3.21058 1083.17 -66.2583 26.2561
lowerback 78.676 -6.77082 12.9742
upperback 9.98596 0.82872 -0.575271
thorax -8.48343 -0.0939147 -5.76461
lowerneck -0.0907524 -4.34799 4.49314
upperneck -23.5971 -6.8114 -2.32353
head -7.45561 -3.84008 -1.03407
rclavicle 4.13472e-014 1.19271e-014
rhumerus 58.1592 -29.3008 -76.9099
rradius 12.927
rwrist 24.8443
rhand -38.8391 1.16764
rfingers 7.12502
rthumb -11.8485 -28.4771
lclavicle 4.13472e-014 1.19271e-014
lhumerus -18.5127 -30.0811 -274.108
lradius 50.5034
lwrist -328.79
lhand -14.7963 -16.048
lfingers 7.12502
lthumb 11.3612 13.6243
rfemur -77.0519 -17.7754 20.81
rtibia 69.7018
rfoot -13.8641 -1.37202
rtoes 4.66842
lfemur -70.1287 -6.80887 -30.4484
ltibia 49.3512
lfoot 1.54624 -9.39789
ltoes -16.4009
139
root 20.1098 15.7412 -3.20223 1083.73 -66.0729 25.9231
lowerback 78.7426 -6.61969 12.8817
upperback 9.92353 0.947661 -0.539552
thorax -8.55181 -0.0516164 -5.73932
lowerneck 0.229827 -4.35981 4.8822
upperneck -23.7505 -6.81872 -2.47917
head -7.58357 -3.85818 -1.1379
rclavicle 1.59028e-014 1.90833e-014
rhumerus 56.5319 -28.4049 -74.5102
rradius 13.5894
rwrist 23.0127
rhand -39.342 0.577427
rfingers 7.12502
rthumb -12.3334 -29.0388
lclavicle 1.59028e-014 1.90833e-014
lhumerus -18.493 -30.1224 -274.037
lradius 50.5113
lwrist -328.807
lhand -14.8211 -16.0916
lfingers 7.12502
lthumb 11.3373 13.5819
rfemur -77.1705 -17.8727 20.9542
rtibia 69.7569
rfoot -14.0461 -1.46705
rtoes 4.81456
lfemur -70.3087 -6.86315 -30.4038
ltibia 49.464
lfoot 1.4949 -9.59523
ltoes -16.2776
140
root 20.0736 15.7437 -3.19463 1084.31 -65.8875 25.5885
lowerback 78.7412 -6.41364 12.7634
upperback 9.92081 1.09281 -0.440995
thorax -8.55893 -0.00139204 -5.64326
lowerneck 0.430267 -4.38392 5.1668
upperneck -23.857 -6.85263 -2.61479
head -7.67165 -3.88486 -1.22001
rclavicle 2.22639e-014 3.65764e-014
rhumerus 54.9707 -27.4042 -72.0357
rradius 14.3143
rwrist 21.1762
rhand -39.8822 -0.0544275
rfingers 7.12502
rthumb -12.8542 -29.6386
lclavicle 2.22639e-014 3.65764e-014
lhumerus -18.3856 -30.0955 -273.908
lradius 50.4881
lwrist -328.851
lhand -14.8417 -16.127
lfingers 7.12502
lthumb 11.3174 13.5477
rfemur -77.301 -17.9734 21.1287
rtibia 69.8024
rfoot -14.2191 -1.57317
rtoes 4.68714
lfemur -70.5028 -6.894 -30.3736
ltibia 49.57
lfoot 1.42246 -9.82776
ltoes -16.165
141
root 20.0379 15.7465 -3.18571 1084.81 -65.6927 25.2961
lowerback 78.693 -6.21262 12.6475
upperback 9.97998 1.21761 -0.339335
thorax -8.49992 0.0458104 -5.5373
lowerneck 0.6051 -4.38401 5.47732
upperneck -24.0234 -6.86211 -2.78641
head -7.77674 -3.90091 -1.32031
rclavicle 1.59028e-014 3.18055e-015
rhumerus 53.4775 -26.3005 -69.5792
rradius 15.1241
rwrist 19.2619
rhand -40.5518 -0.938511
rfingers 7.12502
rthumb -13.4996 -30.481
lclavicle 1.59028e-014 3.18055e-015
lhumerus -18.1628 -30.058 -273.803
lradius 50.4027
lwrist -328.895
lhand -14.866 -16.2191
lfingers 7.12502
lthumb 11.294 13.4568
rfemur -77.3799 -18.0654 21.2358
rtibia 69.8413
rfoot -14.3938 -1.68105
rtoes 4.70275
lfemur -70.6552 -6.9355 -30.363
ltibia 49.6773
lfoot 1.33167 -10.0415
ltoes -16.2735
142
root 20.0037 15.7504 -3.17765 1085.29 -65.5221 24.9685
lowerback 78.7249 -5.99497 12.5307
upperback 10.0143 1.3699 -0.240366
thorax -8.45907 0.1016 -5.44298
lowerneck 0.787327 -4.40971 5.76129
upperneck -24.1702 -6.89513 -2.90161
head -7.87531 -3.93047 -1.39603
rclavicle -3.49861e-014 -4.37326e-014
rhumerus 52.0509 -25.2139 -67.2269
rradius 15.9384
rwrist 17.5447
rhand -41.3199 -1.8914
rfingers 7.12502
rthumb -14.2399 -31.3832
lclavicle -3.49861e-014 -4.37326e-014
lhumerus -17.9851 -30.0829 -273.677
lradius 50.331
lwrist -328.925
lhand -14.8728 -16.3314
lfingers 7.12502
lthumb 11.2874 13.3449
rfemur -77.4103 -18.1511 21.3762
rtibia 69.8755
rfoot -14.5602 -1.78564
rtoes 4.68666
lfemur -70.7483 -6.94185 -30.3396
ltibia 49.7768
lfoot 1.27123 -10.2593
ltoes -16.1304
143
root 19.9707 15.7545 -3.16789 1085.86 -65.3537 24.5409
lowerback 78.7168 -5.80146 12.4537
upperback 10.063 1.5168 -0.15216
thorax -8.40231 0.157348 -5.37458
lowerneck 0.927194 -4.43667 6.09036
upperneck -24.3043 -6.94507 -3.08758
head -7.96748 -3.96733 -1.50273
rclavicle 0 -3.18055e-015
rhumerus 50.7695 -24.1489 -65.0888
rradius 16.7354
rwrist 16.0278
rhand -42.0915 -2.76698
rfingers 7.12502
rthumb -14.9833 -32.2049
lclavicle 0 -3.18055e-015
lhumerus -17.798 -30.0887 -273.547
lradius 50.2524
lwrist -328.975
lhand -14.9186 -16.4158
lfingers 7.12502
lthumb 11.2432 13.263
rfemur -77.4226 -18.243 21.5595
rtibia 69.897
rfoot -14.7556 -1.85862
rtoes 4.61735
lfemur -70.8485 -6.94115 -30.2855
ltibia 49.8798
lfoot 1.16757 -10.4937
ltoes -16.3149
144
root 19.9388 15.7596 -3.15922 1086.3 -65.1727 24.2304
lowerback 78.7304 -5.58247 12.3253
upperback 10.1062 1.65995 -0.0410365
thorax -8.35655 0.208157 -5.25808
lowerneck 1.08039 -4.46312 6.35939
upperneck -24.4498 -6.98705 -3.22416
head -8.06199 -3.99928 -1.58346
rclavicle 6.36111e-015 -6.2816e-014
rhumerus 49.6957 -23.1342 -63.2082
rradius 17.4482
rwrist 14.7863
rhand -42.9205 -3.22847
rfingers 7.12502
rthumb -15.7818 -32.6051
lclavicle 6.36111e-015 -6.2816e-014
lhumerus -17.6263 -30.1397 -273.389
lradius 50.1763
lwrist -328.973
lhand -15.0026 -16.5156
lfingers 7.12502
lthumb 11.1623 13.1675
rfemur -77.4302 -18.3457 21.6835
rtibia 69.9194
rfoot -14.9191 -1.90887
rtoes 4.69893
lfemur -70.9263 -6.94094 -30.2869
ltibia 49.9735
lfoot 1.09079 -10.7141
ltoes -16.3347
145
root 19.9068 15.764 -3.14982 1086.71 -64.9964 23.9323
lowerback 78.7564 -5.36945 12.1949
upperback 10.1476 1.79476 0.05865
thorax -8.31275 0.256428 -5.15046
lowerneck 1.20158 -4.49378 6.66738
upperneck -24.5851 -7.0489 -3.42395
head -8.15251 -4.03974 -1.69118
rclavicle 9.54166e-015 -2.06736e-014
rhumerus 48.8458 -22.2526 -61.6479
rradius 18.0222
rwrist 13.9207
rhand -43.7351 -3.36564
rfingers 7.12502
rthumb -16.5661 -32.6785
lclavicle 9.54166e-015 -2.06736e-014
lhumerus -17.4503 -30.17 -273.233
lradius 50.0707
lwrist -329.026
lhand -15.0014 -16.6254
lfingers 7.12502
lthumb 11.1634 13.0577
rfemur -77.4101 -18.4526 21.8089
rtibia 69.9364
rfoot -15.0793 -1.99543
rtoes 4.55481
lfemur -70.971 -6.93087 -30.2863
ltibia 50.0674
lfoot 1.0128 -10.9567
ltoes -16.1395
146
root 19.8755 15.7681 -3.14043 1087.2 -64.8186 23.5513
lowerback 78.7318 -5.16132 12.0981
upperback 10.2216 1.9358 0.154558
thorax -8.23247 0.310507 -5.06369
lowerneck 1.28913 -4.51798 6.97758
upperneck -24.7336 -7.09971 -3.60472
head -8.24089 -4.07803 -1.79489
rclavicle -5.08889e-014 -3.65764e-014
rhumerus 48.0587 -21.3114 -60.0408
rradius 18.5718
rwrist 13.0131
rhand -44.5659 -3.59816
rfingers 7.12502
rthumb -17.3659 -32.8424
lclavicle -5.08889e-014 -3.65764e-014
lhumerus -17.2295 -30.3052 -273.085
lradius 49.9618
lwrist -329.027
lhand -15.1284 -16.73
lfingers 7.12502
lthumb 11.0409 12.9596
rfemur -77.3961 -18.5689 21.9858
rtibia 69.9565
rfoot -15.25 -2.04668
rtoes 4.55692
lfemur -71.0399 -6.93093 -30.243
ltibia 50.1605
lfoot 0.956256 -11.1582
ltoes -16.1782
147
root 19.8458 15.7728 -3.13153 1087.6 -64.6404 23.2839
lowerback 78.7109 -4.93338 11.9753
upperback 10.2546 2.0875 0.250042
thorax -8.20365 0.365746 -4.97287
lowerneck 1.4258 -4.56307 7.27379
upperneck -24.8378 -7.16843 -3.762
head -8.32334 -4.12302 -1.88608
rclavicle 3.18055e-015 1.04958e-013
rhumerus 47.2123 -20.2313 -58.2813
rradius 19.0697
rwrist 12.0224
rhand -45.3698 -3.74298
rfingers 7.12502
rthumb -18.1394 -32.9172
lclavicle 3.18055e-015 1.04958e-013
lhumerus -17.0162 -30.4407 -272.916
lradius 49.7805
lwrist -329.041
lhand -15.1169 -16.7745
lfingers 7.12502
lthumb 11.052 12.9145
rfemur -77.4115 -18.6875 22.1123
rtibia 69.9778
rfoot -15.3839 -2.09622
rtoes 4.66565
lfemur -71.1079 -6.92984 -30.2542
ltibia 50.2506
lfoot 0.888233 -11.3929
ltoes -16.1163
148
root 19.8153 15.7753 -3.12216 1087.98 -64.4598 23.0179
lowerback 78.6803 -4.70803 11.8477
upperback 10.3158 2.22299 0.32717
thorax -8.14407 0.418982 -4.89568
lowerneck 1.52485 -4.58134 7.67337
upperneck -24.9993 -7.20471 -3.96298
head -8.42303 -4.1604 -2.01279
rclavicle 3.18055e-014 -1.59028e-015
rhumerus 46.3133 -18.8753 -56.1774
rradius 19.6244
rwrist 10.6501
rhand -46.0673 -3.7705
rfingers 7.12502
rthumb -18.8104 -32.881
lclavicle 3.18055e-014 -1.59028e-015
lhumerus -16.7426 -30.653 -272.8
lradius 49.5902
lwrist -329.037
lhand -15.1449 -16.8439
lfingers 7.12502
lthumb 11.025 12.8466
rfemur -77.4187 -18.8312 22.2676
rtibia 70.004
rfoot -15.5637 -2.1487
rtoes 4.54054
lfemur -71.1661 -6.91737 -30.2814
ltibia 50.3466
lfoot 0.79083 -11.6317
ltoes -16.109
